<?xml version="1.0" encoding="utf-8"?>
<!-- Generator: Adobe Illustrator 25.2.0, SVG Export Plug-In . SVG Version: 6.00 Build 0)  -->
<svg version="1.1" baseProfile="basic" id="Layer_1"
	 xmlns="http://www.w3.org/2000/svg" xmlns:xlink="http://www.w3.org/1999/xlink" x="0px" y="0px" viewBox="0 0 690.62 95.25"
	 xml:space="preserve">
<g>
	<path fill="#FFFFFF" d="M29.7,69.69c-0.6-1.44-1.4-3.27-2.39-5.49c-0.99-2.22-2.06-4.62-3.19-7.2c-1.14-2.58-2.36-5.23-3.65-7.96
		c-1.29-2.73-2.51-5.31-3.64-7.74c-1.14-2.43-2.21-4.6-3.2-6.52c-0.99-1.92-1.79-3.39-2.38-4.41c-0.66,7.08-1.2,14.75-1.62,23
		c-0.42,8.25-0.78,16.58-1.08,24.98H0C0.24,72.93,0.51,67.48,0.81,62c0.3-5.49,0.64-10.89,1.04-16.2
		c0.39-5.31,0.81-10.48,1.26-15.52s0.95-9.81,1.49-14.31h7.65c1.62,2.64,3.36,5.76,5.22,9.36c1.86,3.6,3.72,7.37,5.58,11.29
		c1.86,3.93,3.66,7.86,5.4,11.79c1.74,3.93,3.33,7.51,4.77,10.75c1.44-3.24,3.03-6.82,4.77-10.75c1.74-3.93,3.54-7.86,5.4-11.79
		c1.86-3.93,3.72-7.7,5.58-11.29c1.86-3.6,3.6-6.72,5.22-9.36h7.65c2.04,20.1,3.57,40.89,4.59,62.37h-8.55
		c-0.3-8.4-0.66-16.72-1.08-24.98c-0.42-8.25-0.96-15.91-1.62-23c-0.6,1.02-1.4,2.49-2.38,4.41c-0.99,1.92-2.06,4.1-3.2,6.52
		c-1.14,2.43-2.36,5.01-3.65,7.74c-1.29,2.73-2.51,5.39-3.64,7.96c-1.14,2.58-2.21,4.98-3.2,7.2c-0.99,2.22-1.79,4.05-2.38,5.49
		H29.7z"/>
	<path fill="#FFFFFF" d="M76.95,55.02c0-4.14,0.6-7.75,1.8-10.84c1.2-3.09,2.79-5.65,4.77-7.7c1.98-2.04,4.26-3.57,6.84-4.59
		c2.58-1.02,5.22-1.53,7.92-1.53c6.3,0,11.13,1.97,14.49,5.9c3.36,3.93,5.04,9.92,5.04,17.96c0,0.36,0,0.83,0,1.4
		c0,0.57-0.03,1.1-0.09,1.58H85.68c0.36,4.86,1.77,8.55,4.23,11.07c2.46,2.52,6.3,3.78,11.52,3.78c2.94,0,5.41-0.25,7.42-0.77
		c2.01-0.51,3.52-1,4.54-1.48l1.17,7.02c-1.02,0.54-2.81,1.11-5.35,1.71c-2.55,0.6-5.45,0.9-8.69,0.9c-4.08,0-7.6-0.62-10.58-1.85
		c-2.97-1.23-5.42-2.92-7.33-5.08c-1.92-2.16-3.35-4.73-4.27-7.69C77.41,61.81,76.95,58.56,76.95,55.02z M109.08,50.43
		c0.06-3.78-0.89-6.89-2.83-9.31c-1.95-2.43-4.63-3.65-8.05-3.65c-1.92,0-3.62,0.38-5.08,1.12c-1.47,0.75-2.72,1.73-3.74,2.92
		c-1.02,1.2-1.82,2.58-2.38,4.14c-0.57,1.56-0.95,3.15-1.12,4.77H109.08z"/>
	<path fill="#FFFFFF" d="M127.26,55.02c0-4.14,0.6-7.75,1.8-10.84c1.2-3.09,2.79-5.65,4.77-7.7c1.98-2.04,4.26-3.57,6.84-4.59
		c2.58-1.02,5.22-1.53,7.92-1.53c6.3,0,11.13,1.97,14.49,5.9c3.36,3.93,5.04,9.92,5.04,17.96c0,0.36,0,0.83,0,1.4
		c0,0.57-0.03,1.1-0.09,1.58h-32.04c0.36,4.86,1.77,8.55,4.23,11.07c2.46,2.52,6.3,3.78,11.52,3.78c2.94,0,5.41-0.25,7.42-0.77
		c2.01-0.51,3.52-1,4.54-1.48l1.17,7.02c-1.02,0.54-2.81,1.11-5.35,1.71c-2.55,0.6-5.45,0.9-8.69,0.9c-4.08,0-7.6-0.62-10.58-1.85
		c-2.97-1.23-5.42-2.92-7.33-5.08c-1.92-2.16-3.35-4.73-4.27-7.69C127.72,61.81,127.26,58.56,127.26,55.02z M159.39,50.43
		c0.06-3.78-0.89-6.89-2.83-9.31c-1.95-2.43-4.63-3.65-8.05-3.65c-1.92,0-3.62,0.38-5.08,1.12c-1.47,0.75-2.72,1.73-3.74,2.92
		c-1.02,1.2-1.82,2.58-2.38,4.14c-0.57,1.56-0.95,3.15-1.12,4.77H159.39z"/>
	<path fill="#FFFFFF" d="M188.01,31.53h17.73v7.02h-17.73v21.6c0,2.34,0.18,4.28,0.54,5.81c0.36,1.53,0.9,2.73,1.62,3.6
		c0.72,0.87,1.62,1.48,2.7,1.84c1.08,0.36,2.34,0.54,3.78,0.54c2.52,0,4.54-0.28,6.08-0.85c1.53-0.57,2.59-0.97,3.2-1.21l1.62,6.93
		c-0.84,0.42-2.31,0.94-4.41,1.57c-2.1,0.63-4.5,0.95-7.2,0.95c-3.18,0-5.81-0.41-7.88-1.22c-2.07-0.81-3.74-2.02-5-3.65
		s-2.15-3.61-2.66-5.98c-0.51-2.37-0.76-5.11-0.76-8.23V18.48l8.37-1.44V31.53z"/>
	<path fill="#FFFFFF" d="M256.14,15.96h8.73v62.37h-8.73v-28.8h-30.51v28.8h-8.73V15.96h8.73v26.01h30.51V15.96z"/>
	<path fill="#FFFFFF" d="M294.93,30.36c3.36,0,6.19,0.44,8.5,1.31c2.31,0.87,4.17,2.1,5.58,3.69c1.41,1.59,2.41,3.48,3.01,5.67
		c0.6,2.19,0.9,4.61,0.9,7.25v29.25c-0.72,0.12-1.73,0.29-3.02,0.5c-1.29,0.21-2.75,0.4-4.36,0.58c-1.62,0.18-3.38,0.34-5.27,0.5
		c-1.89,0.15-3.77,0.23-5.62,0.23c-2.64,0-5.07-0.27-7.29-0.81c-2.22-0.54-4.14-1.4-5.76-2.56c-1.62-1.17-2.88-2.71-3.78-4.64
		c-0.9-1.92-1.35-4.23-1.35-6.93c0-2.58,0.52-4.8,1.58-6.66c1.05-1.86,2.47-3.36,4.27-4.5c1.8-1.14,3.9-1.98,6.3-2.52
		c2.4-0.54,4.92-0.81,7.56-0.81c0.84,0,1.71,0.04,2.61,0.13c0.9,0.09,1.75,0.21,2.56,0.36c0.81,0.15,1.51,0.29,2.12,0.4
		c0.6,0.12,1.02,0.21,1.26,0.27v-2.34c0-1.38-0.15-2.75-0.45-4.1c-0.3-1.35-0.84-2.55-1.62-3.6c-0.78-1.05-1.84-1.89-3.19-2.52
		c-1.35-0.63-3.11-0.94-5.27-0.94c-2.76,0-5.17,0.2-7.24,0.58c-2.07,0.39-3.62,0.8-4.64,1.21l-0.99-6.93
		c1.08-0.48,2.88-0.95,5.4-1.4C289.26,30.58,291.99,30.36,294.93,30.36z M295.65,72.3c1.98,0,3.74-0.05,5.26-0.14
		c1.53-0.09,2.8-0.25,3.83-0.5V57.72c-0.6-0.3-1.58-0.55-2.92-0.77c-1.35-0.21-2.99-0.31-4.91-0.31c-1.26,0-2.6,0.09-4,0.27
		c-1.41,0.18-2.7,0.56-3.87,1.12c-1.17,0.57-2.15,1.35-2.92,2.34c-0.78,0.99-1.17,2.29-1.17,3.92c0,3,0.96,5.08,2.88,6.25
		C289.74,71.71,292.35,72.3,295.65,72.3z"/>
	<path fill="#FFFFFF" d="M340.83,79.23c-5.16-0.12-8.82-1.23-10.98-3.33c-2.16-2.1-3.24-5.37-3.24-9.81V9.93l8.37-1.44v56.25
		c0,1.38,0.12,2.52,0.36,3.42c0.24,0.9,0.63,1.62,1.17,2.16c0.54,0.54,1.26,0.94,2.16,1.21s2.01,0.5,3.33,0.67L340.83,79.23z"/>
	<path fill="#FFFFFF" d="M369.62,8.49c2.46,0,4.58,0.18,6.35,0.54c1.77,0.36,3.01,0.69,3.73,0.99l-1.53,7.2
		c-0.72-0.36-1.74-0.7-3.06-1.04c-1.32-0.33-2.94-0.5-4.86-0.5c-3.9,0-6.63,1.07-8.19,3.2c-1.56,2.13-2.34,4.99-2.34,8.59v4.05h18
		v7.02h-18v39.78h-8.37V27.3c0-6,1.47-10.63,4.41-13.91C358.7,10.13,363.32,8.49,369.62,8.49z"/>
	<path fill="#FFFFFF" d="M425.96,78.33c-1.68-4.32-3.46-9.25-5.36-14.81c-1.89-5.55-3.62-11.32-5.17-17.32
		c-1.56,6-3.27,11.78-5.13,17.32c-1.86,5.55-3.63,10.49-5.31,14.81h-7.29c-2.76-6.18-5.46-13.23-8.1-21.15
		c-2.64-7.92-5.13-16.47-7.47-25.65h9c0.6,2.82,1.32,5.88,2.16,9.18c0.84,3.3,1.72,6.6,2.65,9.9c0.93,3.3,1.9,6.48,2.93,9.54
		c1.02,3.06,1.98,5.73,2.88,8.01c1.02-2.82,2.02-5.81,3.01-8.96s1.94-6.33,2.83-9.54c0.9-3.21,1.75-6.36,2.57-9.45
		c0.81-3.09,1.51-5.98,2.11-8.68h6.93c0.54,2.7,1.2,5.6,1.98,8.68c0.78,3.09,1.62,6.24,2.52,9.45c0.9,3.21,1.84,6.39,2.83,9.54
		s1.99,6.14,3.01,8.96c0.9-2.28,1.84-4.95,2.83-8.01s1.96-6.24,2.92-9.54c0.96-3.3,1.86-6.6,2.7-9.9c0.84-3.3,1.56-6.36,2.16-9.18
		h8.64c-2.34,9.18-4.83,17.73-7.47,25.65c-2.64,7.92-5.34,14.97-8.1,21.15H425.96z"/>
	<path fill="#FFFFFF" d="M472.76,30.36c3.36,0,6.19,0.44,8.5,1.31c2.31,0.87,4.17,2.1,5.58,3.69c1.41,1.59,2.41,3.48,3.01,5.67
		c0.6,2.19,0.9,4.61,0.9,7.25v29.25c-0.72,0.12-1.73,0.29-3.02,0.5c-1.29,0.21-2.75,0.4-4.36,0.58c-1.62,0.18-3.38,0.34-5.27,0.5
		c-1.89,0.15-3.77,0.23-5.62,0.23c-2.64,0-5.07-0.27-7.29-0.81c-2.22-0.54-4.14-1.4-5.76-2.56c-1.62-1.17-2.88-2.71-3.78-4.64
		c-0.9-1.92-1.35-4.23-1.35-6.93c0-2.58,0.52-4.8,1.58-6.66c1.05-1.86,2.47-3.36,4.27-4.5c1.8-1.14,3.9-1.98,6.3-2.52
		c2.4-0.54,4.92-0.81,7.56-0.81c0.84,0,1.71,0.04,2.61,0.13c0.9,0.09,1.75,0.21,2.56,0.36c0.81,0.15,1.51,0.29,2.12,0.4
		c0.6,0.12,1.02,0.21,1.26,0.27v-2.34c0-1.38-0.15-2.75-0.45-4.1c-0.3-1.35-0.84-2.55-1.62-3.6c-0.78-1.05-1.84-1.89-3.19-2.52
		c-1.35-0.63-3.11-0.94-5.27-0.94c-2.76,0-5.17,0.2-7.24,0.58c-2.07,0.39-3.62,0.8-4.64,1.21l-0.99-6.93
		c1.08-0.48,2.88-0.95,5.4-1.4C467.09,30.58,469.82,30.36,472.76,30.36z M473.48,72.3c1.98,0,3.74-0.05,5.26-0.14
		c1.53-0.09,2.8-0.25,3.83-0.5V57.72c-0.6-0.3-1.58-0.55-2.92-0.77c-1.35-0.21-2.99-0.31-4.91-0.31c-1.26,0-2.6,0.09-4,0.27
		c-1.41,0.18-2.7,0.56-3.87,1.12c-1.17,0.57-2.15,1.35-2.92,2.34c-0.78,0.99-1.17,2.29-1.17,3.92c0,3,0.96,5.08,2.88,6.25
		C467.57,71.71,470.18,72.3,473.48,72.3z"/>
	<path fill="#FFFFFF" d="M497.78,87.06c0.66,0.3,1.51,0.58,2.57,0.85c1.05,0.27,2.08,0.41,3.1,0.41c3.3,0,5.88-0.74,7.74-2.21
		c1.86-1.47,3.54-3.86,5.04-7.16c-3.78-7.2-7.31-14.83-10.58-22.9c-3.27-8.07-5.99-16.25-8.14-24.52h9c0.66,2.7,1.45,5.61,2.38,8.73
		c0.93,3.12,1.96,6.33,3.1,9.63c1.14,3.3,2.37,6.6,3.69,9.9c1.32,3.3,2.7,6.48,4.14,9.54c2.28-6.3,4.26-12.54,5.94-18.72
		c1.68-6.18,3.27-12.54,4.77-19.08h8.64c-2.16,8.82-4.56,17.3-7.2,25.42c-2.64,8.13-5.49,15.74-8.55,22.81
		c-1.2,2.7-2.45,5.02-3.74,6.98c-1.29,1.95-2.72,3.56-4.28,4.81c-1.56,1.26-3.32,2.19-5.26,2.79c-1.95,0.6-4.16,0.9-6.62,0.9
		c-0.66,0-1.35-0.04-2.07-0.13c-0.72-0.09-1.43-0.21-2.12-0.36c-0.69-0.15-1.32-0.31-1.89-0.49c-0.57-0.18-0.98-0.33-1.21-0.45
		L497.78,87.06z"/>
</g>
<g>
	<circle fill="#FFFFFF" cx="581.25" cy="64" r="15.62"/>
	<circle fill="#FFFFFF" cx="675" cy="64" r="15.62"/>
	<line fill="none" stroke="#FFFFFF" stroke-width="7" stroke-miterlimit="10" x1="612.5" y1="64" x2="587.5" y2="64"/>
	<line fill="none" stroke="#FFFFFF" stroke-width="7" stroke-miterlimit="10" x1="668.75" y1="64" x2="643.75" y2="64"/>
	
		<line fill="none" stroke="#FFFFFF" stroke-width="3" stroke-linecap="round" stroke-miterlimit="10" x1="628.12" y1="64" x2="628.12" y2="1.5"/>
	
		<polygon fill="none" stroke="#FFFFFF" stroke-width="3" stroke-linecap="round" stroke-linejoin="round" stroke-miterlimit="10" points="
		634.38,7.75 665.62,20.25 634.38,32.75 	"/>
	<path fill="#FFFFFF" d="M632.88,47.04v4.2c5.17,1.93,8.88,6.91,8.88,12.75c0,7.51-6.11,13.62-13.62,13.62S614.5,71.51,614.5,64
		c0-5.84,3.7-10.82,8.88-12.75v-4.2c-7.42,2.08-12.88,8.89-12.88,16.96c0,9.72,7.91,17.62,17.62,17.62
		c9.72,0,17.62-7.91,17.62-17.62C645.75,55.93,640.29,49.12,632.88,47.04z"/>
</g>
</svg>
