<svg id="Layer_1" data-name="Layer 1" xmlns="http://www.w3.org/2000/svg" viewBox="0 0 300 300"><defs><style>.cls-1,.cls-3{fill:none;}.cls-2,.cls-3{stroke:#000;stroke-linecap:round;stroke-width:3px;}.cls-2{stroke-miterlimit:10;}.cls-3{stroke-linejoin:round;}</style></defs><path class="cls-1" d="M33.4,37.5h1.42l-1.67-.7C33.24,37,33.31,37.26,33.4,37.5Z"/><path class="cls-1" d="M19.92,27.57q1.2-3.36,2.41-6.51c.82-2.1,1.67-4.12,2.57-6q1.32,2.9,2.53,6,.6,1.53,1.2,3.12L33.22,26c-.42-1.11-.85-2.19-1.26-3.24-.87-2.17-1.72-4.23-2.57-6.2s-1.74-3.93-2.67-5.86H23.28c-.93,1.93-1.82,3.89-2.67,5.86s-1.7,4-2.56,6.2-1.75,4.45-2.65,6.86-1.87,5-2.9,7.86h3.9l2.44-6.84H24l1.21-3.09Z"/><path d="M50,25a24.9,24.9,0,1,0-1.21,7.69A25,25,0,0,0,50,25ZM33.4,37.5c-.09-.24-.16-.46-.25-.7-.34-.92-.67-1.83-1-2.72L31,30.66H18.84L16.4,37.5H12.5q1.54-4.24,2.9-7.86t2.65-6.86c.86-2.17,1.71-4.23,2.56-6.2s1.74-3.93,2.67-5.86h3.44c.93,1.93,1.82,3.89,2.67,5.86s1.7,4,2.57,6.2c.41,1,.84,2.13,1.26,3.24s.92,2.38,1.38,3.62Q36,33.25,37.5,37.5H33.4Z"/><path d="M24.9,15c-.9,1.93-1.75,4-2.57,6s-1.61,4.27-2.41,6.51h10c-.42-1.15-.85-2.28-1.26-3.39s-.8-2.1-1.2-3.12Q26.22,17.91,24.9,15Z"/><path d="M250.53,269.86c-27.54-2.25-44.42-7.83-50.31-16.68-6.05-9.1-.68-22.4,5-36.48,6.31-15.63,12.84-31.79,5.11-45.77-4.34-7.86-12.82-13.87-25.67-18.21.05.57.09,1.15.09,1.74a17.58,17.58,0,0,1-2,8.17c9.57,3.4,15.9,7.79,18.85,13.14,5.42,9.81,0,23.11-5.63,37.19-6.4,15.86-13,32.27-4,45.76,7.84,11.79,26.68,18.66,58.58,21.18A25.52,25.52,0,0,1,250,275,24.9,24.9,0,0,1,250.53,269.86Z"/><path d="M270.1,280.86v4.82l1,.08,1.22.06,1.61,0a24,24,0,0,0,3.25-.22,9.34,9.34,0,0,0,2.69-.78,4.69,4.69,0,0,0,1.85-1.55,4.25,4.25,0,0,0,.7-2.51,4.7,4.7,0,0,0-.52-2.29,3.84,3.84,0,0,0-1.49-1.5,7,7,0,0,0-2.33-.79,17.56,17.56,0,0,0-3-.24h-5Z"/><path d="M274.16,272.85c.33,0,.64,0,1,0a16.25,16.25,0,0,0,1.75-.16,6.46,6.46,0,0,0,2.21-.72,3.62,3.62,0,0,0,2-3.46,3.53,3.53,0,0,0-.55-2,4.13,4.13,0,0,0-1.54-1.31,8.33,8.33,0,0,0-2.29-.74,15.5,15.5,0,0,0-2.79-.24c-1,0-1.75,0-2.31,0s-1.06.07-1.51.12v8.53Z"/><path d="M275,250a25,25,0,0,0-25,25,25.52,25.52,0,0,0,.48,4.9A25,25,0,1,0,275,250Zm8.38,37c-2,1.4-5.25,2.09-9.66,2.09-.55,0-1.16,0-1.81,0s-1.3-.06-2-.12-1.3-.12-1.93-.2a15.57,15.57,0,0,1-1.76-.31V261.61a15.57,15.57,0,0,1,1.76-.31c.63-.08,1.28-.15,1.93-.2s1.29-.1,1.93-.12,1.24,0,1.79,0a26.52,26.52,0,0,1,4.49.36,11.34,11.34,0,0,1,3.62,1.21,6.54,6.54,0,0,1,2.41,2.25,6.36,6.36,0,0,1,.88,3.43,6.08,6.08,0,0,1-1.08,3.72,6.4,6.4,0,0,1-2.87,2.17,8.43,8.43,0,0,1,3.87,2.27,6.27,6.27,0,0,1,1.43,4.39A7,7,0,0,1,283.38,287Z"/><line class="cls-2" x1="167.13" y1="154.46" x2="167.13" y2="91.96"/><polygon class="cls-3" points="173.38 98.21 204.63 110.71 173.38 123.21 173.38 98.21"/><path class="cls-1" d="M153.64,156.32a13.6,13.6,0,0,0,25.21,5,122.47,122.47,0,0,0-14.11-3.31C160.87,157.35,157.18,156.78,153.64,156.32Z"/><path d="M151.66,146c-24-2.75-41.1-.71-54.13.86-16.66,2-26,3.13-37.17-6.18C52.51,122,63.74,110,75.63,97.35c9.16-9.79,17.82-19,15.16-30.77-2.55-11.22-15.42-21.75-42-33.89a24.82,24.82,0,0,1-5,8.75C66.79,51.9,79.29,61.08,81,68.79,82.52,75.35,76,82.38,68.33,90.51c-12.51,13.36-28.08,30-16.65,55.3l.45,1,.82.71c14.88,13,27.84,11.46,45.77,9.3,13-1.56,28.63-3.44,50.85-1,0-.45-.07-.91-.07-1.37A17.53,17.53,0,0,1,151.66,146Z"/><path d="M184.66,152.72a17.67,17.67,0,0,0-12.78-15.22v4.2a13.69,13.69,0,0,1,8.52,9.7,13.35,13.35,0,0,1,.35,3.06,13.67,13.67,0,0,1-13.63,13.62,13.65,13.65,0,0,1-13.48-11.76,14.28,14.28,0,0,1-.14-1.86,13.49,13.49,0,0,1,2.54-7.9,13.72,13.72,0,0,1,6.34-4.86v-4.2A17.72,17.72,0,0,0,151.66,146a17.53,17.53,0,0,0-2.16,8.44c0,.46,0,.92.07,1.37a17.62,17.62,0,0,0,35.18-1.37C184.75,153.87,184.71,153.29,184.66,152.72Z"/></svg>